<svg width="32" height="32" viewBox="0 0 32 32" fill="none" xmlns="http://www.w3.org/2000/svg">
<rect width="32" height="32" rx="16" fill="#94A3B8"/>
<g clip-path="url(#clip0_778_2940)">
<path d="M21.8 9H9.78894C8.22714 9 7 10.2643 7 11.7889V18.408C7 19.9327 8.22714 21.197 9.78894 21.197H13.9166L15.3296 23.5025C15.3296 23.5025 15.3296 23.5397 15.3668 23.5769C15.4412 23.7256 15.5899 23.8 15.7759 23.8C15.9618 23.8 16.1106 23.6884 16.1849 23.5769C16.2221 23.5397 16.2221 23.5025 16.2221 23.5025L17.6352 21.197H21.7628C23.2874 21.197 24.5518 19.9327 24.5518 18.408V11.7889C24.5889 10.2643 23.3246 9 21.8 9Z" fill="white"/>
<path d="M10.9045 13.8346C10.9045 13.8346 10.4211 13.8346 9.97488 14.2437V12.5703H8.89648V17.0698H9.97488V16.7351C9.97488 16.7351 10.2352 17.1814 10.8673 17.1814C10.8673 17.1814 12.392 17.107 12.392 15.508C12.4291 15.4708 12.3548 13.8346 10.9045 13.8346ZM10.6814 16.2145C10.3095 16.2145 9.97488 15.917 9.97488 15.508C9.97488 15.1361 10.2724 14.8015 10.6814 14.8015C11.0533 14.8015 11.3879 15.099 11.3879 15.508C11.3508 15.917 11.0533 16.2145 10.6814 16.2145Z" fill="#94A3B8"/>
<path d="M12.7637 12.458V13.4992C12.7637 13.4992 13.2471 13.462 13.2471 14.3917V17.0319H14.2883V14.1314C14.2883 14.1314 14.3255 12.458 12.7637 12.458Z" fill="#94A3B8"/>
<path d="M16.8171 13.8711C16.8171 13.8711 15.0321 13.8711 15.0321 15.5445C15.0321 15.5445 14.9578 17.1806 16.8171 17.1806C16.8171 17.1806 18.6392 17.1806 18.6392 15.5445C18.6392 15.5073 18.7136 13.8711 16.8171 13.8711ZM16.8171 16.2138C16.4452 16.2138 16.1105 15.9163 16.1105 15.5073C16.1105 15.1354 16.408 14.8007 16.8171 14.8007C17.1889 14.8007 17.5236 15.0982 17.5236 15.5073C17.5236 15.9163 17.2261 16.2138 16.8171 16.2138Z" fill="#94A3B8"/>
<path d="M21.6139 13.9831V14.2806C21.6139 14.2806 21.3164 13.8716 20.7214 13.8716C20.7214 13.8716 19.1968 13.7972 19.1968 15.5078C19.1968 15.5078 19.1968 17.1067 20.6842 17.1067C20.6842 17.1067 21.2792 17.1439 21.6139 16.6977V16.958C21.6139 16.958 21.6882 17.7389 20.9445 17.7389H20.6842V18.7057H21.0933C21.0933 18.7057 22.6551 18.7057 22.6551 17.0324V13.9831H21.6139ZM20.9817 16.2143C20.6098 16.2143 20.2752 15.9168 20.2752 15.5078C20.2752 15.1359 20.5727 14.8012 20.9817 14.8012C21.3536 14.8012 21.6882 15.0987 21.6882 15.5078C21.6882 15.9168 21.3536 16.2143 20.9817 16.2143Z" fill="#94A3B8"/>
</g>
<defs>
<clipPath id="clip0_778_2940">
<rect width="17.5889" height="14.8" fill="white" transform="translate(7 9)"/>
</clipPath>
</defs>
</svg>
