<svg width="28" height="28" viewBox="0 0 28 28" fill="none" xmlns="http://www.w3.org/2000/svg">
<path d="M1.33594 6.40074C1.33594 5.70129 1.90295 5.13428 2.6024 5.13428H25.3987C26.0981 5.13428 26.6651 5.70129 26.6651 6.40074C26.6651 7.10018 26.0981 7.6672 25.3987 7.6672H2.6024C1.90295 7.6672 1.33594 7.10018 1.33594 6.40074ZM1.33594 21.5982C1.33594 20.8988 1.90295 20.3318 2.6024 20.3318H25.3987C26.0981 20.3318 26.6651 20.8988 26.6651 21.5982C26.6651 22.2977 26.0981 22.8647 25.3987 22.8647H2.6024C1.90295 22.8647 1.33594 22.2977 1.33594 21.5982ZM2.6024 12.733C1.90295 12.733 1.33594 13.3 1.33594 13.9995C1.33594 14.6989 1.90295 15.266 2.6024 15.266H25.3987C26.0981 15.266 26.6651 14.6989 26.6651 13.9995C26.6651 13.3 26.0981 12.733 25.3987 12.733H2.6024Z" fill="white"/>
</svg>
