<svg width="16" height="16" viewBox="0 0 16 16" fill="none" xmlns="http://www.w3.org/2000/svg">
<path d="M10 7C10 6.72386 9.77614 6.5 9.5 6.5H6.5C6.22386 6.5 6 6.72386 6 7C6 7.27614 6.22386 7.5 6.5 7.5H9.5C9.77614 7.5 10 7.27614 10 7ZM9.5 8.5C9.77614 8.5 10 8.72386 10 9C10 9.27614 9.77614 9.5 9.5 9.5H7.5C7.22386 9.5 7 9.27614 7 9C7 8.72386 7.22386 8.5 7.5 8.5H9.5ZM14 8C14 4.68629 11.3137 2 7.99999 2C4.68628 2 1.99999 4.68629 1.99999 8C1.99999 11.3137 4.68628 14 7.99999 14C9.09361 14 10.1201 13.707 11.0038 13.195L13.3419 13.9743C13.5178 14.033 13.7118 13.9894 13.8458 13.8612C13.9797 13.7329 14.0317 13.541 13.9807 13.3626L13.2691 10.872C13.7352 10.0186 14 9.03957 14 8ZM7.99999 3C10.7614 3 13 5.23858 13 8C13 8.93308 12.7449 9.80506 12.3009 10.5517C12.2305 10.67 12.212 10.8122 12.2499 10.9446L12.7588 12.7259L11.1006 12.1732C10.958 12.1256 10.8016 12.1448 10.6746 12.2253C9.90146 12.7159 8.98467 13 7.99999 13C5.23856 13 2.99999 10.7614 2.99999 8C2.99999 5.23858 5.23856 3 7.99999 3Z" fill="#834DF0"/>
</svg>
