<svg width="24" height="24" viewBox="0 0 24 24" fill="none" xmlns="http://www.w3.org/2000/svg">
<path d="M9.09095 5.45459H6.18186C5.7802 5.45459 5.45459 5.7802 5.45459 6.18186V9.09095" stroke="#834DF0" stroke-width="1.09091" stroke-linecap="square" stroke-linejoin="round"/>
<path d="M9.09095 18.5451H6.18186C5.7802 18.5451 5.45459 18.2195 5.45459 17.8178V14.9087" stroke="#834DF0" stroke-width="1.09091" stroke-linecap="square" stroke-linejoin="round"/>
<path d="M14.9091 18.5451H17.8181C18.2198 18.5451 18.5454 18.2195 18.5454 17.8178V14.9087" stroke="#834DF0" stroke-width="1.09091" stroke-linecap="square" stroke-linejoin="round"/>
<path d="M14.9091 5.45459H17.8181C18.2198 5.45459 18.5454 5.7802 18.5454 6.18186V9.09095" stroke="#834DF0" stroke-width="1.09091" stroke-linecap="square" stroke-linejoin="round"/>
<path fill-rule="evenodd" clip-rule="evenodd" d="M12.0001 8.36328C14.0084 8.36328 15.6365 9.99134 15.6365 11.9996C15.6365 14.008 14.0084 15.636 12.0001 15.636C9.99182 15.636 8.36377 14.008 8.36377 11.9996C8.36377 9.99134 9.99182 8.36328 12.0001 8.36328ZM10.9091 12C10.9091 12.6025 11.3975 13.0909 12 13.0909C12.6025 13.0909 13.0909 12.6025 13.0909 12C13.0909 11.3975 12.6025 10.9091 12 10.9091C11.3975 10.9091 10.9091 11.3975 10.9091 12Z" fill="#834DF0"/>
</svg>
