<svg width="20" height="20" viewBox="0 0 20 20" fill="none" xmlns="http://www.w3.org/2000/svg">
<path d="M10.8841 15.598C10.8841 15.598 15.5981 10.8839 16.7766 9.70542C17.9551 8.52688 18.5444 5.58063 16.482 3.51822C14.4196 1.45582 11.4734 2.04508 10.2948 3.22359C9.11632 4.40209 2.92914 10.5893 2.33988 11.1785C1.75063 11.7678 0.866744 13.8302 2.63451 15.598C4.40227 17.3657 6.46469 16.4818 7.05394 15.8926C7.64319 15.3033 14.125 8.8215 14.7142 8.23225C15.3035 7.643 15.5981 6.16988 14.7142 5.286C13.8304 4.40209 12.3572 4.69671 11.768 5.286C11.1787 5.87525 6.17007 10.8839 6.17007 10.8839" stroke="#834DF0" stroke-width="1.5" stroke-linecap="round" stroke-linejoin="round"/>
</svg>
